<svg version="1.1" id="Layer_1" xmlns="http://www.w3.org/2000/svg" xmlns:xlink="http://www.w3.org/1999/xlink" x="0px" y="0px"
	 width="100%" viewBox="0 0 624 624" enable-background="new 0 0 624 624" xml:space="preserve">
<path fill="#000000" opacity="1.000000" stroke="none" 
	d="
M42.858208,551.310669 
	C17.900871,536.861206 9.110478,510.243652 21.384094,485.092133 
	C29.022556,469.439178 42.250713,460.707214 59.518089,458.818146 
	C64.951828,458.223694 67.503609,455.997986 69.625259,451.118103 
	C92.604156,398.265839 115.813530,345.513641 138.995316,292.749664 
	C156.882416,252.036972 174.741150,211.311508 192.761383,170.657730 
	C205.522018,141.869598 228.047913,126.907608 259.233337,124.737320 
	C264.281219,124.386024 268.073608,122.915031 271.707428,118.917015 
	C287.711273,101.309235 315.900940,97.651169 336.609283,112.962975 
	C356.730865,127.840889 362.229858,155.075409 349.064148,176.757080 
	C346.821259,180.450668 347.012878,183.071579 348.835083,186.754776 
	C368.852997,227.215607 388.678406,267.771667 408.568085,308.295990 
	C410.109161,311.435883 411.830719,314.489197 413.314667,317.654816 
	C418.131226,327.929443 415.453888,337.982239 406.818146,342.323975 
	C397.153625,347.182861 387.856934,343.801758 382.493317,333.050079 
	C368.811829,305.624695 355.291382,278.118896 341.723083,250.637115 
	C334.201752,235.403061 326.602753,220.205475 319.293976,204.869827 
	C317.607513,201.331253 315.605835,199.841385 311.655731,200.153198 
	C300.150146,201.061432 289.510132,198.296494 279.881775,191.860001 
	C270.373871,185.503998 263.996796,176.824173 260.740387,165.865692 
	C258.963745,159.886856 257.998505,159.175598 251.883926,160.489960 
	C239.045303,163.249710 230.140976,170.935089 224.887970,182.830017 
	C208.672043,219.549515 192.515961,256.295471 176.374573,293.047821 
	C156.550140,338.186066 136.751938,383.335815 116.969223,428.492371 
	C111.622231,440.697540 106.507355,453.006561 101.000870,465.138489 
	C99.195656,469.115814 99.506561,471.799072 102.375519,475.371124 
	C115.150185,491.276611 118.172646,509.059601 109.659058,527.788818 
	C101.232002,546.327637 85.895546,555.635254 65.827560,556.812134 
	C57.953037,557.273987 50.313717,555.067383 42.858208,551.310669 
z"/>
<path fill="#000000" opacity="1.000000" stroke="none" 
	d="
M413.519562,595.781128 
	C401.923462,598.605530 390.661835,598.876465 379.491547,596.106750 
	C375.189850,595.040100 372.473572,596.257690 369.395203,599.220093 
	C344.046051,623.614319 299.525604,611.789368 289.502197,578.036316 
	C284.339111,560.650024 287.442108,544.725037 299.157806,530.793640 
	C301.528198,527.974976 301.473450,525.860168 299.985504,522.799438 
	C280.689545,483.108398 261.448669,443.390381 242.309036,403.623718 
	C235.974396,390.462128 241.319946,378.866272 254.580383,376.355469 
	C260.944763,375.150421 268.617218,378.933105 271.884949,385.537384 
	C280.819641,403.595093 289.493011,421.781891 298.309265,439.898407 
	C309.676331,463.256622 321.108124,486.583405 332.432007,509.962524 
	C333.645874,512.468567 335.108612,513.576538 338.055176,513.867065 
	C364.050507,516.430237 379.965515,530.902710 384.957672,556.521973 
	C385.648224,560.065796 387.174652,561.482788 390.651428,562.164734 
	C406.411804,565.255981 424.115295,557.015320 431.447784,541.594421 
	C438.517609,526.725891 444.464233,511.317719 450.752289,496.083862 
	C479.786011,425.744720 508.764709,355.382812 537.769348,285.031647 
	C541.100708,276.951324 541.118896,276.958801 534.855896,270.805450 
	C520.439209,256.641174 516.477112,234.678650 524.947876,215.883041 
	C533.445679,197.027405 552.765259,186.101120 574.653503,187.771698 
	C593.342285,189.198090 610.970825,203.899994 616.262390,222.472748 
	C623.943420,249.432083 608.724976,276.381897 581.641785,283.411499 
	C576.913025,284.638885 573.871460,286.759460 571.948547,291.499725 
	C555.673889,331.619904 539.189514,371.655029 522.739319,411.703888 
	C503.127106,459.450897 483.721191,507.284760 463.754181,554.883118 
	C454.475891,577.001221 437.110565,590.105103 413.519562,595.781128 
z"/>
<path fill="#000000" opacity="1.000000" stroke="none" 
	d="
M230.941696,337.848480 
	C211.761536,381.495605 192.783401,424.817413 173.691772,468.089142 
	C170.103058,476.223083 164.249802,479.671448 155.991608,479.229736 
	C149.287628,478.871155 143.695251,474.662781 141.460739,468.076874 
	C139.642899,462.719025 140.775620,457.575867 142.970337,452.562408 
	C152.052887,431.814667 161.087601,411.045898 170.209274,390.315430 
	C185.634125,355.260010 201.132751,320.237061 216.558716,285.182098 
	C225.478134,264.913147 244.123810,252.051193 265.141418,252.975204 
	C286.197906,253.900955 301.846161,264.044800 310.917816,283.305969 
	C320.140289,302.887390 328.965973,322.655396 338.012939,342.319824 
	C349.844360,368.036438 361.718719,393.733276 373.583008,419.434784 
	C376.671082,426.124390 380.944214,431.396423 389.031464,431.827240 
	C397.960785,432.302887 403.691772,428.425873 407.737427,419.051300 
	C414.796021,402.695343 421.773346,386.304321 428.781525,369.926605 
	C442.931305,336.859497 457.062958,303.784637 471.237976,270.728333 
	C475.059509,261.816376 484.923492,257.668152 493.624634,261.190186 
	C502.078613,264.612183 506.565887,274.651733 502.950836,283.725403 
	C497.405334,297.644470 491.301697,311.341095 485.440735,325.134613 
	C470.266937,360.845642 455.008240,396.520905 439.956543,432.283325 
	C430.472809,454.816437 412.217438,467.848572 389.049377,467.086823 
	C369.196686,466.434082 353.570618,457.393860 344.746063,439.430145 
	C332.487640,414.476227 321.308105,388.992249 309.669830,363.733795 
	C299.496429,341.654541 289.360229,319.558044 279.136383,297.502197 
	C276.059784,290.865082 270.519165,287.966919 263.387909,288.223816 
	C256.219421,288.482117 251.161713,292.097656 248.257416,298.659424 
	C242.528381,311.603180 236.820862,324.556488 230.941696,337.848480 
z"/>
</svg>