<svg version="1.1" id="Layer_1" xmlns="http://www.w3.org/2000/svg" xmlns:xlink="http://www.w3.org/1999/xlink" x="0px" y="0px"
	 width="100%" viewBox="0 0 754 754" enable-background="new 0 0 754 754" xml:space="preserve">
<path fill="#212D77" opacity="1.000000" stroke="none" 
	d="
M473.000000,755.000000 
	C315.333344,755.000000 158.166672,755.000000 1.000000,755.000000 
	C1.000000,503.666656 1.000000,252.333328 1.000000,1.000000 
	C252.333328,1.000000 503.666656,1.000000 755.000000,1.000000 
	C755.000000,252.333328 755.000000,503.666656 755.000000,755.000000 
	C661.166687,755.000000 567.333313,755.000000 473.000000,755.000000 
M378.303772,222.018616 
	C382.819366,230.911179 387.437622,239.753326 391.832520,248.705154 
	C409.414612,284.517700 426.920624,320.367645 444.470886,356.195862 
	C448.495483,364.411865 456.143646,367.902405 464.245911,365.298157 
	C472.828491,362.539551 476.709778,356.062164 475.096252,346.682037 
	C474.625214,343.943787 473.741791,341.177643 472.520905,338.681885 
	C450.539948,293.748047 428.478180,248.853775 406.645477,203.241089 
	C407.201965,202.224548 407.700378,201.170807 408.323547,200.196945 
	C420.687317,180.876541 418.065796,156.505203 401.867493,140.313843 
	C386.167206,124.620316 360.957458,121.748146 342.326843,134.193832 
	C336.776459,137.901611 332.400055,143.366821 326.620483,147.931152 
	C292.673920,147.532837 268.174438,162.179184 254.259933,193.523132 
	C240.704147,224.059021 227.157837,254.599640 213.759506,285.204773 
	C185.168793,350.513092 156.676529,415.864441 127.315315,481.425903 
	C125.488213,481.566101 123.662178,481.722290 121.833847,481.843994 
	C99.559555,483.327087 80.335640,501.680298 78.164581,523.541199 
	C75.769562,547.657288 90.165016,569.808105 112.238060,575.971191 
	C133.521576,581.913818 154.337067,574.150269 166.300995,555.807495 
	C177.874847,538.062805 176.453735,515.397156 162.723862,498.597290 
	C161.253540,496.798218 159.831192,494.959930 158.780411,492.459503 
	C163.637650,481.177795 168.440430,469.872284 173.361588,458.618530 
	C194.186707,410.995575 215.001236,363.367889 235.909439,315.781403 
	C251.805725,279.601898 268.016327,243.559402 283.727966,207.300354 
	C290.819031,190.935684 302.776062,182.263657 320.724030,182.136459 
	C324.085144,198.062103 332.938263,209.758453 347.479523,217.186859 
	C357.187958,222.146393 367.470642,222.536301 378.303772,222.018616 
M363.670898,550.509583 
	C362.593842,551.770996 361.524017,553.038635 360.438629,554.292786 
	C350.664215,565.586914 347.044281,578.956665 349.454559,593.332214 
	C355.294006,628.160278 395.095428,644.824341 424.302063,624.976379 
	C428.115417,622.384888 431.395599,619.008911 435.602386,616.349304 
	C442.144958,617.305725 448.686707,619.072205 455.230286,619.079041 
	C484.228149,619.109314 507.482300,608.037476 521.201660,581.551575 
	C527.748108,568.913330 532.573608,555.374084 538.022034,542.178284 
	C570.458923,463.618195 602.850159,385.039215 636.058411,306.292603 
	C647.110840,304.662537 656.695557,300.215240 664.553650,292.064026 
	C681.636475,274.343842 682.846130,246.109787 667.160461,227.831863 
	C650.395203,208.295944 622.610840,204.948257 601.837341,219.961258 
	C581.713379,234.504837 576.057068,262.428589 589.479431,283.663330 
	C592.970886,289.186951 598.222107,293.598236 602.311218,299.274506 
	C601.972717,300.210266 601.667053,301.159485 601.291016,302.079895 
	C584.845825,342.331970 568.446106,382.602722 551.929932,422.825653 
	C533.329773,468.124023 514.274170,513.239258 496.112946,558.712280 
	C487.130035,581.204041 465.616425,590.355042 445.345947,583.696289 
	C444.329315,565.039490 434.826294,551.725464 419.199799,542.319763 
	C411.539429,537.708923 402.925781,537.112183 394.036682,536.042908 
	C381.906555,510.938385 369.759796,485.841858 357.652100,460.726532 
	C349.363373,443.532990 341.145416,426.305328 332.862091,409.109192 
	C329.735199,402.617767 324.359497,399.249939 317.297241,399.432922 
	C310.626953,399.605743 305.660522,403.104187 302.923004,409.306976 
	C300.378082,415.073334 301.521790,420.616333 304.163666,426.080414 
	C324.113495,467.342438 344.026947,508.622070 363.670898,550.509583 
M500.425049,452.960754 
	C516.600525,414.884155 532.777893,376.808350 548.950317,338.730438 
	C553.432251,328.177887 558.052368,317.680725 562.334351,307.047485 
	C567.465515,294.305725 559.174133,281.778870 546.514648,283.023468 
	C539.077087,283.754761 534.794678,288.489594 531.978333,295.072815 
	C510.677216,344.865265 489.335449,394.640350 467.943787,444.393951 
	C465.686462,449.644196 461.975922,453.560242 456.211548,455.110077 
	C446.707092,457.665527 438.917542,453.171021 433.899628,442.314575 
	C412.914459,396.912231 391.984314,351.484070 370.808838,306.170624 
	C368.387451,300.989044 365.284821,295.722321 361.253540,291.761841 
	C334.506195,265.484009 292.990326,273.945953 277.983124,308.373108 
	C269.551758,327.715027 260.845306,346.936890 252.366959,366.258545 
	C236.277618,402.925171 220.171661,439.585327 204.356964,476.370453 
	C202.745590,480.118500 202.100784,484.847351 202.713562,488.860535 
	C203.762451,495.729767 209.555542,500.143280 216.328247,500.802399 
	C224.134323,501.562042 230.117859,497.917847 233.611221,490.010468 
	C247.776947,457.945587 261.875122,425.850891 276.023834,393.778503 
	C286.690887,369.598389 297.415985,345.443817 308.073853,321.259674 
	C311.163361,314.249146 316.175537,310.118134 324.057159,309.741150 
	C332.209106,309.351196 337.689850,313.094910 341.116669,320.276459 
	C342.046539,322.225189 343.097229,324.117310 343.997681,326.078949 
	C364.380890,370.485687 384.747437,414.900085 405.125000,459.309418 
	C414.131897,478.938324 435.145172,490.851044 456.356445,488.162933 
	C477.810211,485.444092 492.385803,473.861481 500.425049,452.960754 
z"/>
<path fill="#FCFCFD" opacity="1.000000" stroke="none" 
	d="
M500.252747,453.300415 
	C492.385803,473.861481 477.810211,485.444092 456.356445,488.162933 
	C435.145172,490.851044 414.131897,478.938324 405.125000,459.309418 
	C384.747437,414.900085 364.380890,370.485687 343.997681,326.078949 
	C343.097229,324.117310 342.046539,322.225189 341.116669,320.276459 
	C337.689850,313.094910 332.209106,309.351196 324.057159,309.741150 
	C316.175537,310.118134 311.163361,314.249146 308.073853,321.259674 
	C297.415985,345.443817 286.690887,369.598389 276.023834,393.778503 
	C261.875122,425.850891 247.776947,457.945587 233.611221,490.010468 
	C230.117859,497.917847 224.134323,501.562042 216.328247,500.802399 
	C209.555542,500.143280 203.762451,495.729767 202.713562,488.860535 
	C202.100784,484.847351 202.745590,480.118500 204.356964,476.370453 
	C220.171661,439.585327 236.277618,402.925171 252.366959,366.258545 
	C260.845306,346.936890 269.551758,327.715027 277.983124,308.373108 
	C292.990326,273.945953 334.506195,265.484009 361.253540,291.761841 
	C365.284821,295.722321 368.387451,300.989044 370.808838,306.170624 
	C391.984314,351.484070 412.914459,396.912231 433.899628,442.314575 
	C438.917542,453.171021 446.707092,457.665527 456.211548,455.110077 
	C461.975922,453.560242 465.686462,449.644196 467.943787,444.393951 
	C489.335449,394.640350 510.677216,344.865265 531.978333,295.072815 
	C534.794678,288.489594 539.077087,283.754761 546.514648,283.023468 
	C559.174133,281.778870 567.465515,294.305725 562.334351,307.047485 
	C558.052368,317.680725 553.432251,328.177887 548.950317,338.730438 
	C532.777893,376.808350 516.600525,414.884155 500.252747,453.300415 
z"/>
<path fill="#FBFBFD" opacity="1.000000" stroke="none" 
	d="
M128.143921,481.198151 
	C156.676529,415.864441 185.168793,350.513092 213.759506,285.204773 
	C227.157837,254.599640 240.704147,224.059021 254.259933,193.523132 
	C268.174438,162.179184 292.673920,147.532837 327.040192,148.312164 
	C321.355072,158.741150 319.274536,169.653168 320.465973,181.267685 
	C302.776062,182.263657 290.819031,190.935684 283.727966,207.300354 
	C268.016327,243.559402 251.805725,279.601898 235.909439,315.781403 
	C215.001236,363.367889 194.186707,410.995575 173.361588,458.618530 
	C168.440430,469.872284 163.637650,481.177795 158.347397,492.815247 
	C149.068542,486.500488 139.217102,482.330383 128.143921,481.198151 
z"/>
<path fill="#FCFBFD" opacity="1.000000" stroke="none" 
	d="
M445.464539,584.523010 
	C465.616425,590.355042 487.130035,581.204041 496.112946,558.712280 
	C514.274170,513.239258 533.329773,468.124023 551.929932,422.825653 
	C568.446106,382.602722 584.845825,342.331970 601.291016,302.079895 
	C601.667053,301.159485 601.972717,300.210266 602.723572,298.793701 
	C613.020874,304.269043 623.728516,306.984161 635.256714,306.466614 
	C602.850159,385.039215 570.458923,463.618195 538.022034,542.178284 
	C532.573608,555.374084 527.748108,568.913330 521.201660,581.551575 
	C507.482300,608.037476 484.228149,619.109314 455.230286,619.079041 
	C448.686707,619.072205 442.144958,617.305725 435.292816,615.819214 
	C441.505798,606.065613 445.333862,595.924133 445.464539,584.523010 
z"/>
<path fill="#F13A3D" opacity="1.000000" stroke="none" 
	d="
M127.729614,481.312012 
	C139.217102,482.330383 149.068542,486.500488 158.150482,493.155426 
	C159.831192,494.959930 161.253540,496.798218 162.723862,498.597290 
	C176.453735,515.397156 177.874847,538.062805 166.300995,555.807495 
	C154.337067,574.150269 133.521576,581.913818 112.238060,575.971191 
	C90.165016,569.808105 75.769562,547.657288 78.164581,523.541199 
	C80.335640,501.680298 99.559555,483.327087 121.833847,481.843994 
	C123.662178,481.722290 125.488213,481.566101 127.729614,481.312012 
z"/>
<path fill="#F23A3D" opacity="1.000000" stroke="none" 
	d="
M445.405243,584.109619 
	C445.333862,595.924133 441.505798,606.065613 434.953003,615.642700 
	C431.395599,619.008911 428.115417,622.384888 424.302063,624.976379 
	C395.095428,644.824341 355.294006,628.160278 349.454559,593.332214 
	C347.044281,578.956665 350.664215,565.586914 360.438629,554.292786 
	C361.524017,553.038635 362.593842,551.770996 364.149048,550.158936 
	C373.039825,542.094055 383.165192,538.249939 394.296204,536.678345 
	C402.925781,537.112183 411.539429,537.708923 419.199799,542.319763 
	C434.826294,551.725464 444.329315,565.039490 445.405243,584.109619 
z"/>
<path fill="#F23A3C" opacity="1.000000" stroke="none" 
	d="
M635.657593,306.379608 
	C623.728516,306.984161 613.020874,304.269043 602.900513,298.416656 
	C598.222107,293.598236 592.970886,289.186951 589.479431,283.663330 
	C576.057068,262.428589 581.713379,234.504837 601.837341,219.961258 
	C622.610840,204.948257 650.395203,208.295944 667.160461,227.831863 
	C682.846130,246.109787 681.636475,274.343842 664.553650,292.064026 
	C656.695557,300.215240 647.110840,304.662537 635.657593,306.379608 
z"/>
<path fill="#F2393B" opacity="1.000000" stroke="none" 
	d="
M320.595001,181.702072 
	C319.274536,169.653168 321.355072,158.741150 327.472839,148.360001 
	C332.400055,143.366821 336.776459,137.901611 342.326843,134.193832 
	C360.957458,121.748146 386.167206,124.620316 401.867493,140.313843 
	C418.065796,156.505203 420.687317,180.876541 408.323547,200.196945 
	C407.700378,201.170807 407.201965,202.224548 406.240234,203.663727 
	C398.302765,212.679443 388.802887,218.117325 377.990662,221.450836 
	C367.470642,222.536301 357.187958,222.146393 347.479523,217.186859 
	C332.938263,209.758453 324.085144,198.062103 320.595001,181.702072 
z"/>
<path fill="#FCFCFD" opacity="1.000000" stroke="none" 
	d="
M378.147217,221.734726 
	C388.802887,218.117325 398.302765,212.679443 406.134338,204.018707 
	C428.478180,248.853775 450.539948,293.748047 472.520905,338.681885 
	C473.741791,341.177643 474.625214,343.943787 475.096252,346.682037 
	C476.709778,356.062164 472.828491,362.539551 464.245911,365.298157 
	C456.143646,367.902405 448.495483,364.411865 444.470886,356.195862 
	C426.920624,320.367645 409.414612,284.517700 391.832520,248.705154 
	C387.437622,239.753326 382.819366,230.911179 378.147217,221.734726 
z"/>
<path fill="#FCFBFD" opacity="1.000000" stroke="none" 
	d="
M394.166443,536.360596 
	C383.165192,538.249939 373.039825,542.094055 364.289490,549.852173 
	C344.026947,508.622070 324.113495,467.342438 304.163666,426.080414 
	C301.521790,420.616333 300.378082,415.073334 302.923004,409.306976 
	C305.660522,403.104187 310.626953,399.605743 317.297241,399.432922 
	C324.359497,399.249939 329.735199,402.617767 332.862091,409.109192 
	C341.145416,426.305328 349.363373,443.532990 357.652100,460.726532 
	C369.759796,485.841858 381.906555,510.938385 394.166443,536.360596 
z"/>
</svg>